<?xml version="1.0" encoding="utf-8"?>
<!-- Generator: Adobe Illustrator 24.0.1, SVG Export Plug-In . SVG Version: 6.00 Build 0)  -->
<svg version="1.1" id="Calque_1" xmlns="http://www.w3.org/2000/svg" xmlns:xlink="http://www.w3.org/1999/xlink" x="0px" y="0px"
	 viewBox="0 0 128 128" style="enable-background:new 0 0 128 128;" xml:space="preserve">
<style type="text/css">
	.st0{fill:#FFBF3C;}
	.st1{fill:#3785A3;}
</style>
<circle class="st0" cx="76.8" cy="54" r="50.7"/>
<path class="st1" d="M87.8,55.7c-0.6,0-1.3,0-2.2,0.1c-2.7,0.2-4.6,0.4-5.7,0.4c-1.1,0-1.9,0.1-2.5,0.1c-0.6,0-1.3,0.1-2,0.2
	c-0.7,0.1-2.2,0.4-4.4,0.7c0.8-2.6,1.7-5.1,2.6-7.5c0.9-2.5,1.9-4.9,2.8-7.4c0.9-2.5,1.9-5,2.8-7.5c0.9-2.5,1.7-5.1,2.5-7.7
	c0.2-0.7,0.5-1.5,0.7-2.3c0.2-0.8,0.4-1.5,0.6-2.3c0.1-0.8,0.1-1.3-0.1-1.5c-0.2-0.2-0.4-0.5-0.7-1C82.1,20,82,19.9,82,19.7
	c0-0.1-0.1-0.2-0.2-0.4c-0.4-0.6-0.8-1-1.4-1.4c-0.5-0.3-1.2-0.5-2-0.4c-0.2,0-0.5,0.1-0.7,0.1c-1.6,0.3-3,0.8-4.5,1.7
	c-1.6,1-3,2-4.1,3c-4.1,3.4-7.9,6.9-11.6,10.7C54,36.9,50.4,40.8,47,44.8c-3.4,4-6.8,8.1-10,12.3c-3.2,4.2-6.4,8.3-9.5,12.5
	c-2.2,0.6-4.5,1.3-6.7,2.1c-2.2,0.7-4.5,1.6-6.6,2.4c-1.6,0.6-3.3,1.1-5,1.6c-1.7,0.5-3.4,1.1-5,1.8c-0.9,0.4-1.6,0.8-2.2,1.3
	c-0.6,0.5-1.1,1-1.4,1.4c-0.3,0.4-0.3,0.7-0.1,0.9c0.2,0.2,0.7,0.2,1.5,0c1.6-0.4,3.2-0.9,4.6-1.3c1.5-0.4,3.2-0.8,5.3-1.1
	c0.6,0,1.1-0.1,1.6-0.3c0.5-0.2,1-0.4,1.6-0.6c0.9-0.2,1.7-0.4,2.2-0.5c0.5-0.1,1-0.1,1.5-0.2c0.5-0.1,1-0.2,1.6-0.3
	c0.6-0.1,1.4-0.4,2.5-0.7c-2.6,3.9-5.2,7.7-7.8,11.6c-2.6,3.9-5.1,7.8-7.4,11.7c-0.6,1-1.3,2-2,2.9c-0.7,1-1.4,1.9-2.1,2.8
	c-0.2,0.2-0.4,0.4-0.8,0.6c-0.3,0.2-0.6,0.5-0.8,0.7c-0.2,0.3-0.4,0.6-0.6,0.9c-0.1,0.3-0.1,0.7,0,1.1c0.3,0.9,0.9,1.7,1.8,2.6
	c0.9,0.9,1.9,1.3,3.2,1.2c0.8,0,1.5-0.1,2.1-0.4c0.6-0.3,1-0.6,1.4-1.1c0.4-0.4,0.7-1,0.9-1.5c0.2-0.6,0.5-1.2,0.7-1.7
	c1.3-3.2,2.8-6.1,4.4-8.7c1.6-2.6,3.4-5.3,5.3-8c1.8-2.6,3.5-5.2,5-7.8c1.5-2.6,3.3-5.1,5.2-7.6c0.3-0.3,0.8-0.6,1.3-1
	c0.6-0.3,1-0.6,1.2-0.7c0.4-0.2,1.1-0.5,2.2-0.8c1.1-0.3,1.8-0.6,2.3-0.7c4.1-1.3,8.3-2.6,12.5-3.9c1.2-0.4,2.3-0.7,3.5-1
	c3.1-0.9,6.1-1.7,9.3-2.4c-0.7,2.5-1.4,5-2,7.5c-0.7,2.5-1.2,5.2-1.7,8c-0.3,1.6-0.7,3.3-1,5c-0.4,1.7-0.5,3.4-0.5,5.2
	c0.2,0,0.4,0.2,0.5,0.7c0.2,0.5,0.3,1,0.5,1.5c0.2,0.5,0.4,0.7,0.8,0.8c0.3,0.1,0.7-0.3,1.2-1.1c1.5-5.1,2.9-9.9,4.2-14.5
	c1.3-4.6,2.6-9.5,3.9-14.7c2-0.6,3.7-1.1,5.2-1.5c1.5-0.4,2.8-0.8,4.1-1.1c1.2-0.3,2.5-0.7,3.6-1.1c1.2-0.4,2.5-0.9,3.9-1.5
	c0.5-0.1,1-0.3,1.5-0.5c0.5-0.2,0.8-0.5,0.8-0.9C88.6,56,88.4,55.8,87.8,55.7z M65.2,58.6c0,0-3.6,0.8-7.7,1.7l0,0l-2,0.4
	c0,0,0,0-0.1,0c-1.4,0.3-2.7,0.6-4,0.9c-5.9,1.3-13.2,3.6-13.2,3.6s6-10.8,20.9-25.1c10.1-9.7,14.5-13.5,16.6-15.4
	c0.2-0.2,0.3-0.3,0.3-0.3s-2.6,9-3.7,12.5C71.2,40.3,65.2,58.6,65.2,58.6z"/>
</svg>
